M48
;Layer_Color=9474304
;FILE_FORMAT=2:4
INCH
;TYPE=PLATED
T1F00S00C0.0280
T2F00S00C0.0354
%
T01
X002850Y004850
X004000Y010500
T02
X002000Y000400
X003000
X004000
X005000
Y003400
X004000
X003000
X002000
Y006475
X003000
X004000
X005000
Y009475
X004000
X003000
X002000
X002268Y010800
X001459
X000650
X003100
X005050Y010450
Y011450
Y012450
Y013450
X003100Y013300
X002268
X001459
X000650
M30
