G04 Layer_Color=128*
%FSAX24Y24*%
%MOIN*%
G70*
G01*
G75*
%ADD19C,0.0020*%
D19*
X004873Y013450D02*
X005227D01*
X005050Y013273D02*
Y013627D01*
X004873Y012450D02*
X005227D01*
X005050Y012273D02*
Y012627D01*
X004873Y011450D02*
X005227D01*
X005050Y011273D02*
Y011627D01*
X004873Y010450D02*
X005227D01*
X005050Y010273D02*
Y010627D01*
X001282Y013300D02*
X001636D01*
X001459Y013123D02*
Y013477D01*
X001282Y010800D02*
X001636D01*
X001459Y010623D02*
Y010977D01*
X002090Y013300D02*
X002445D01*
X002268Y013123D02*
Y013477D01*
X002090Y010800D02*
X002445D01*
X002268Y010623D02*
Y010977D01*
X002923Y010800D02*
X003277D01*
X003100Y010623D02*
Y010977D01*
X002923Y013300D02*
X003277D01*
X003100Y013123D02*
Y013477D01*
X000473Y010800D02*
X000827D01*
X000650Y010623D02*
Y010977D01*
X000473Y013300D02*
X000827D01*
X000650Y013123D02*
Y013477D01*
X001823Y009475D02*
X002177D01*
X002000Y009298D02*
Y009652D01*
X002823Y009475D02*
X003177D01*
X003000Y009298D02*
Y009652D01*
X003823Y009475D02*
X004177D01*
X004000Y009298D02*
Y009652D01*
X004823Y009475D02*
X005177D01*
X005000Y009298D02*
Y009652D01*
X001823Y006475D02*
X002177D01*
X002000Y006298D02*
Y006652D01*
X002823Y006475D02*
X003177D01*
X003000Y006298D02*
Y006652D01*
X003823Y006475D02*
X004177D01*
X004000Y006298D02*
Y006652D01*
X004823Y006475D02*
X005177D01*
X005000Y006298D02*
Y006652D01*
X001823Y003400D02*
X002177D01*
X002000Y003223D02*
Y003577D01*
X002823Y003400D02*
X003177D01*
X003000Y003223D02*
Y003577D01*
X003823Y003400D02*
X004177D01*
X004000Y003223D02*
Y003577D01*
X004823Y003400D02*
X005177D01*
X005000Y003223D02*
Y003577D01*
X001823Y000400D02*
X002177D01*
X002000Y000223D02*
Y000577D01*
X002823Y000400D02*
X003177D01*
X003000Y000223D02*
Y000577D01*
X003823Y000400D02*
X004177D01*
X004000Y000223D02*
Y000577D01*
X004823Y000400D02*
X005177D01*
X005000Y000223D02*
Y000577D01*
X002710Y004850D02*
X002990D01*
X002850Y004710D02*
Y004990D01*
X003860Y010500D02*
X004140D01*
X004000Y010360D02*
Y010640D01*
M02*
